<svg width="32" height="32" viewBox="0 0 32 32" fill="none" xmlns="http://www.w3.org/2000/svg">
<rect width="32" height="32" rx="6" fill="#2563EB"/>
<path d="M8 11C8 9.89543 8.89543 9 10 9H22C23.1046 9 24 9.89543 24 11V21C24 22.1046 23.1046 23 22 23H10C8.89543 23 8 22.1046 8 21V11Z" fill="white"/>
<path d="M12 14C12 13.4477 12.4477 13 13 13H19C19.5523 13 20 13.4477 20 14V18C20 18.5523 19.5523 19 19 19H13C12.4477 19 12 18.5523 12 18V14Z" fill="#2563EB"/>
<path d="M14 14.5L16 16L14 17.5V14.5Z" fill="white"/>
</svg>
